<svg xmlns="http://www.w3.org/2000/svg" version="1.1" xmlns:xlink="http://www.w3.org/1999/xlink" xmlns:svgjs="http://svgjs.com/svgjs" width="100%" height="100%" viewBox="0 0 1000 600"><rect width="1000" height="600" x="0" y="0" fill="#ffffff"/><g><rect width="333.3333333333333" height="333.3333333333333" rx="13.333333333333334" ry="13.333333333333334" y="152.51845714425855" fill="#000000" transform="matrix(0.9593522124084495,0,0,0.9593522124084495,0,-6.210981000813007)" x="130.2962188720703"/><path d="M347.24598579156196 244.38495812606178Q357.31259707682784 245.2842087619664 361.63399596603625 250.57979584007154Q365.93041567091393 255.87538291817665 365.93041567091393 265.14266030486056Q365.93041567091393 274.40993769154454 360.01034898454174 315.0510705975683Q354.0653031138388 355.692203503592 354.0653031138388 371.9786316871983Q354.0653031138388 388.2650598708046 356.588200731238 394.18512655717683L356.588200731238 394.18512655717683Q344.72308817416285 390.23841543292866 340.1269182573169 383.5689732166359Q335.5557275248016 376.9245101846738 335.5557275248016 367.75714953531264Q335.5557275248016 358.58978888595135 339.6023553863725 329.089372191413Q343.6489832479434 299.5889554968745 344.89794246447764 284.1268403961808L344.89794246447764 284.1268403961808Q337.5290830869257 298.3399962803403 320.3434042674147 324.418264721575Q303.18270463223445 350.4965331628096 300.48495272452055 354.79295286768735L300.48495272452055 354.79295286768735Q296.1635538353121 357.3158504850865 291.4924463654741 357.3158504850865L291.4924463654741 357.3158504850865Q283.0245028773721 357.3158504850865 281.95039795115264 354.268389996743L281.95039795115264 354.268389996743Q279.97704238902855 349.22259476194466 275.75556023714284 338.1568161034515Q271.5090989009265 327.1160166292888 268.81134699321257 320.0968658323665L268.81134699321257 320.0968658323665Q260.9179247447163 300.3133518424644 254.62317029338377 286.82459230389475L254.62317029338377 286.82459230389475Q254.42333681873828 288.07355152042896 250.2018546668526 321.44574178622355Q245.98037251496692 354.79295286768735 245.98037251496692 374.57646685758954L245.98037251496692 374.57646685758954Q245.98037251496692 380.17180414766284 246.70476886055678 389.5140190873388L246.70476886055678 389.5140190873388Q227.99535979687408 389.5140190873388 227.99535979687408 378.173469401208L227.99535979687408 378.173469401208Q227.99535979687408 376.57480160404424 234.9145938564737 329.3641432190505Q241.8338279160733 282.1534848340567 241.8338279160733 263.61893006068885L241.8338279160733 263.61893006068885L241.8338279160733 262.7196794247842Q236.6381575752909 254.2767151210128 230.8679659949028 248.88121130558497L230.8679659949028 248.88121130558497Q235.18936488411123 244.1851246514163 241.48411933544372 244.1851246514163L241.48411933544372 244.1851246514163Q253.72391965747912 244.1851246514163 261.1677165880231 257.94865521762347Q268.6364927028978 271.7121857838306 294.36505256350284 339.5056920573084L294.36505256350284 339.5056920573084Q294.8896154344472 340.6047761678586 295.08944890909265 341.1293390388029L295.08944890909265 341.1293390388029Q296.6881167062565 338.60644142140376 303.88212179349364 328.19012155550837Q311.0761268807308 317.74882250528225 314.7730461616721 312.07854766221686Q318.4699654426134 306.43325200348215 324.93957418426066 295.8920362159332Q331.409182925908 285.375799612715 335.00618546952654 277.83208594484836L335.00618546952654 277.83208594484836Q345.0727967547924 257.3241756093563 347.24598579156196 244.38495812606178L347.24598579156196 244.38495812606178Z " fill="#ffffff" transform="matrix(0.9593522124084495,0,0,0.9593522124084495,0,-6.210981000813007)"/><path d="M642.0498660660128 261.97160488212864Q650.0766887933628 262.6886411555396 653.5224464405875 266.9111880989595Q656.9482864135508 271.1337350423794 656.9482864135508 278.52319219336425Q656.9482864135508 285.912649344349 652.2277976135956 318.3187053676706Q647.4873911393789 350.7247613909922 647.4873911393789 363.7110850094345Q647.4873911393789 376.6974086278769 649.4990762397817 381.4178974278321L649.4990762397817 381.4178974278321Q640.0381809656099 378.27090489452866 636.3733289015096 372.9528858667309Q632.7283945116707 367.65478451319456 632.7283945116707 360.3449980592555Q632.7283945116707 353.0352116053163 635.9550577420198 329.5124383025856Q639.181720972369 305.989664999855 640.1776046854397 293.66062463203934L640.1776046854397 293.66062463203934Q634.3018907783224 304.99378128678427 620.5985308864692 325.78783321570114Q606.9150886688774 346.58188514461796 604.7639798486446 350.0077251175813L604.7639798486446 350.0077251175813Q601.3182222014199 352.0194102179841 597.5936171145353 352.0194102179841L597.5936171145353 352.0194102179841Q590.8415255399158 352.0194102179841 589.985065546675 349.5894539580915L589.985065546675 349.5894539580915Q588.4115692800232 345.56608375728587 585.0454823298442 336.7425540594791Q581.6594777054036 327.93894203593385 579.5083688851709 322.34207556847633L579.5083688851709 322.34207556847633Q573.2143838185639 306.56727755343593 568.1951299046873 295.81173345227205L568.1951299046873 295.81173345227205Q568.035788510596 296.8076171653428 564.669701560417 323.41762997859274Q561.3036146102379 350.0077251175813 561.3036146102379 365.78252313262163L561.3036146102379 365.78252313262163Q561.3036146102379 370.24408216717853 561.881227163819 377.6932923409476L561.881227163819 377.6932923409476Q546.9628891420193 377.6932923409476 546.9628891420193 368.6506682262653L546.9628891420193 368.6506682262653Q546.9628891420193 367.37593707353477 552.4800849124313 329.7315327194612Q557.997280682843 292.08712836538757 557.997280682843 277.30821406341795L557.997280682843 277.30821406341795L557.997280682843 276.591177790007Q553.8544044364688 269.8590038896489 549.253421682082 265.55678624918335L549.253421682082 265.55678624918335Q552.6991793293068 261.8122634880374 557.7184332431832 261.8122634880374L557.7184332431832 261.8122634880374Q567.4780936312764 261.8122634880374 573.413560561178 272.7869020060768Q579.368945165341 283.7615405241163 599.884149654598 337.81810846959553L599.884149654598 337.81810846959553Q600.3024208140878 338.6944861370977 600.4617622081789 339.1127572965874L600.4617622081789 339.1127572965874Q601.7364933609095 337.1010721961846 607.472783548197 328.7954020291747Q613.2090737354844 320.4698141879034 616.1568895261737 315.9485021305623Q619.1047053168631 311.4471077474825 624.2633829505695 303.04184920916555Q629.4220605842759 294.65650834511007 632.2902056779196 288.6413707181629L632.2902056779196 288.6413707181629Q640.3170284052696 272.2889601495414 642.0498660660128 261.97160488212864L642.0498660660128 261.97160488212864ZM700.8468404857086 320.8283323246089Q696.684046565073 328.07836575576374 694.4532670477946 335.6072466265785Q692.2424052047776 343.13612749739326 692.2424052047776 350.0077251175813Q692.2424052047776 356.8992404120307 695.3097270410354 361.6993999090317Q698.3969665515547 366.4995594060326 704.1332567388421 366.4995594060326L704.1332567388421 366.4995594060326Q712.1600794661922 366.4995594060326 719.1910184804716 357.6959473824873Q726.2219574947509 348.87241768468067 730.026233278681 336.32428289998944Q733.8305090626112 323.7761481152982 733.8305090626112 313.08035703691854Q733.8305090626112 302.4044836328003 732.954131395109 295.5129683383509L732.954131395109 295.5129683383509Q736.3998890423337 295.2341208986911 737.2563490355745 295.2341208986911L737.2563490355745 295.2341208986911Q749.4459656835603 295.2341208986911 749.4459656835603 307.70258498633666L749.4459656835603 307.70258498633666Q749.4459656835603 310.4313063601504 746.020125710597 329.8709564392911Q742.5743680633723 349.29068884417035 742.5743680633723 360.98236363562074Q742.5743680633723 372.67403842707114 747.0160094236677 381.71666254175335L747.0160094236677 381.71666254175335Q737.9733853089855 379.8444011611803 733.8902620853955 373.74959283718744Q729.8071388618056 367.65478451319456 729.8071388618056 356.18220413861974L729.8071388618056 356.18220413861974Q729.8071388618056 354.1705190382169 730.3847514153865 348.4342288509295L730.3847514153865 348.4342288509295Q726.5008049344107 362.05791804573715 716.761062220579 370.3835058870084Q707.0014018324858 378.68917605401833 697.6201772553595 378.68917605401833Q688.2190350039717 378.68917605401833 682.4827448166844 371.5984840169547Q676.7464546293969 364.5077919798911 676.7464546293969 351.9596571951999Q676.7464546293969 339.41152241050867 681.407190406568 327.4210825051371Q686.067926183739 315.45056027402694 695.4690684351267 306.70670127326594Q704.850293012253 297.9628422725049 716.4622971066577 297.9628422725049L716.4622971066577 297.9628422725049Q721.4815510205342 297.9628422725049 727.5166063217429 299.9745273729078L727.5166063217429 299.9745273729078Q719.0515947606416 302.1256361931405 712.0206557463622 307.8619263804279Q704.9897167320829 313.5982165677154 700.8468404857086 320.8283323246089ZM789.8987621084934 330.36889829582645Q795.0574397421998 311.72595518714235 802.3074731733547 302.90242548933566Q809.5375889302483 294.078895791529 815.7718209740709 294.078895791529Q822.0259706921552 294.078895791529 825.1729632254587 298.7396315687Q828.3199557587621 303.400367345871 828.3199557587621 310.5707300799803Q828.3199557587621 317.74109281408965 824.5953506718776 322.9794411448416Q820.8707455849931 328.21778947559363 813.7003828508838 328.21778947559363L813.7003828508838 328.21778947559363Q811.4098503108211 328.21778947559363 810.1152014838293 327.93894203593385L810.1152014838293 327.93894203593385Q814.9950316778758 320.90800302165457 814.9950316778758 313.5982165677154L814.9950316778758 313.5982165677154Q814.9950316778758 308.4196212597475 810.8322377572401 308.4196212597475L810.8322377572401 308.4196212597475Q807.5259038298453 308.4196212597475 803.8012987429607 312.3035677407234Q800.0766936560763 316.1675965474379 796.6309360088516 323.0591118418873Q793.1851783616268 329.9307094620753 790.8946458215642 340.98501867716044Q788.6041132815014 352.0194102179841 788.6041132815014 364.7866394195509L788.6041132815014 364.7866394195509Q788.6041132815014 366.2207119663728 789.3211495549124 376.97625606753667L789.3211495549124 376.97625606753667Q785.5965444680278 377.25510350719645 785.0189319144469 377.25510350719645L785.0189319144469 377.25510350719645Q772.3911264327099 377.25510350719645 772.3911264327099 364.9260631393808L772.3911264327099 364.9260631393808Q772.3911264327099 362.05791804573715 775.418612920445 342.837362383472Q778.4261817339186 323.6367243954683 778.4261817339186 312.2238970436777Q778.4261817339186 300.83098736614863 775.9763077997645 291.21075069788526L775.9763077997645 291.21075069788526Q784.4413193608658 294.5170846252802 787.8074063110448 300.61189294927294Q791.1934109354853 306.70670127326594 791.1934109354853 314.8131946976617Q791.1934109354853 322.9196881220574 789.8987621084934 330.36889829582645L789.8987621084934 330.36889829582645ZM854.2926029956468 332.65943083588917Q858.7342443559423 312.1641440208935 867.1992559170436 303.04184920916555Q875.6443498038833 293.93947207169913 883.6910902054948 293.93947207169913Q891.7179129328449 293.93947207169913 896.239224990186 298.8193022657457Q900.7406193732658 303.6991324597923 900.7406193732658 312.522662157599Q900.7406193732658 321.32627418114424 895.7213654593892 328.2974601726393Q890.7021115455128 335.24872848987303 881.9582525447516 338.53514474300647L881.9582525447516 338.53514474300647L883.6910902054948 343.8531637708042Q888.4115790054501 358.61216039851234 897.4542031201323 373.1122272608222Q906.4769095605532 387.59237644887065 912.0737760280107 392.8904778024069L912.0737760280107 392.8904778024069Q908.2097472212962 394.1851266293989 904.6843188770258 394.1851266293989Q901.1788082070169 394.1851266293989 897.5936268399622 392.39253594587154Q894.0084454729075 390.5999452623442 891.3593947961394 388.3691657450658Q888.7103441193713 386.1583039020488 885.7625283286819 381.3581444050479Q882.8147125379926 376.5380672337855 881.1017925515108 373.2516509806521Q879.3888725650293 369.94531705325727 876.7995749110454 363.21314315289914L876.7995749110454 363.21314315289914Q874.0708535372315 356.18220413861974 869.1910233431851 341.98090239023117L869.1910233431851 341.98090239023117Q867.3386796368734 342.12032611006106 863.7534982698188 342.12032611006106L863.7534982698188 342.12032611006106Q862.897038276578 341.4032898366501 862.897038276578 337.53926102993574L862.897038276578 337.53926102993574Q869.3503647372762 337.39983731010585 874.3696186511528 334.94996337595177Q879.3888725650293 332.5200071160593 881.9582525447516 328.7954020291747L881.9582525447516 328.7954020291747Q887.4156952923794 321.18685046131435 887.4156952923794 313.438875173624L887.4156952923794 313.438875173624Q887.4156952923794 309.5748463669096 885.623104608852 307.0652194099713Q883.8305139253247 304.5555924530331 880.3847562781001 304.5555924530331L880.3847562781001 304.5555924530331Q874.3696186511528 304.5555924530331 868.1951396301142 312.522662157599Q862.0206606090757 320.4698141879034 857.7981136656558 334.3922684966322Q853.575566722236 348.2948051310996 853.575566722236 363.4919905925589L853.575566722236 363.4919905925589Q853.575566722236 371.9570021536602 854.4320267154768 376.97625606753667L854.4320267154768 376.97625606753667Q850.986269068252 377.25510350719645 850.5480802345008 377.25510350719645L850.5480802345008 377.25510350719645Q843.8159063341428 377.25510350719645 840.5892431037936 374.3869584135528Q837.3625798734444 371.51881331990904 837.3625798734444 365.42400499591616Q837.3625798734444 359.3291966719233 839.792536133337 341.98090239023117L839.792536133337 341.98090239023117Q847.5405114210273 288.6413707181629 847.5405114210273 260.95580349479656L847.5405114210273 260.95580349479656Q847.5405114210273 248.48733940715096 845.8275914345455 244.1851217666854L845.8275914345455 244.1851217666854Q854.1332616015555 247.19269058015902 857.5192662259959 253.06840448727633Q860.885353176175 258.9441183943936 860.885353176175 269.2813913360678L860.885353176175 269.2813913360678Q860.885353176175 276.4517540701771 858.0769611053156 299.39691481932675Q855.2884867087176 322.34207556847633 854.2926029956468 332.65943083588917L854.2926029956468 332.65943083588917Z " fill="#000000" transform="matrix(0.9593522124084495,0,0,0.9593522124084495,0,-6.210981000813007)"/></g></svg>